<?xml version="1.0" standalone="no"?>
<svg xmlns:xlink="http://www.w3.org/1999/xlink" version="1.1" xmlns="http://www.w3.org/2000/svg" id="QRCodeGenerate" class="img-fluid mw-75" data-copyright="my-qrcode.net" data-modulecount="37" data-defaultsize="390" data-defaultclass="img-fluid mw-75" data-text="Создала для Вас команда NewPage1." data-color="rgb(0, 0, 0)" data-backcolor="none" data-typeicon="none" data-framesize="none" data-framewidth="0" data-titlelocation="none" data-titlefont="sans-serif" data-titletext="" data-typenumber="0" data-errorcorrectionlevel="Q" data-mode="Byte" data-mb="UTF-8" width="390px" height="390px" x="0px" y="0px" viewBox="0 0 390 390" preserveAspectRatio="xMinYMin meet"><rect width="100%" height="100%" fill="none" x="0" y="0"/><path d="M10,10l10,0 0,10 -10,0 0,-10z M20,10l10,0 0,10 -10,0 0,-10z M30,10l10,0 0,10 -10,0 0,-10z M40,10l10,0 0,10 -10,0 0,-10z M50,10l10,0 0,10 -10,0 0,-10z M60,10l10,0 0,10 -10,0 0,-10z M70,10l10,0 0,10 -10,0 0,-10z M100,10l10,0 0,10 -10,0 0,-10z M110,10l10,0 0,10 -10,0 0,-10z M140,10l10,0 0,10 -10,0 0,-10z M150,10l10,0 0,10 -10,0 0,-10z M170,10l10,0 0,10 -10,0 0,-10z M190,10l10,0 0,10 -10,0 0,-10z M200,10l10,0 0,10 -10,0 0,-10z M220,10l10,0 0,10 -10,0 0,-10z M230,10l10,0 0,10 -10,0 0,-10z M250,10l10,0 0,10 -10,0 0,-10z M260,10l10,0 0,10 -10,0 0,-10z M290,10l10,0 0,10 -10,0 0,-10z M310,10l10,0 0,10 -10,0 0,-10z M320,10l10,0 0,10 -10,0 0,-10z M330,10l10,0 0,10 -10,0 0,-10z M340,10l10,0 0,10 -10,0 0,-10z M350,10l10,0 0,10 -10,0 0,-10z M360,10l10,0 0,10 -10,0 0,-10z M370,10l10,0 0,10 -10,0 0,-10z M10,20l10,0 0,10 -10,0 0,-10z M70,20l10,0 0,10 -10,0 0,-10z M100,20l10,0 0,10 -10,0 0,-10z M110,20l10,0 0,10 -10,0 0,-10z M160,20l10,0 0,10 -10,0 0,-10z M180,20l10,0 0,10 -10,0 0,-10z M190,20l10,0 0,10 -10,0 0,-10z M200,20l10,0 0,10 -10,0 0,-10z M210,20l10,0 0,10 -10,0 0,-10z M220,20l10,0 0,10 -10,0 0,-10z M260,20l10,0 0,10 -10,0 0,-10z M270,20l10,0 0,10 -10,0 0,-10z M280,20l10,0 0,10 -10,0 0,-10z M310,20l10,0 0,10 -10,0 0,-10z M370,20l10,0 0,10 -10,0 0,-10z M10,30l10,0 0,10 -10,0 0,-10z M30,30l10,0 0,10 -10,0 0,-10z M40,30l10,0 0,10 -10,0 0,-10z M50,30l10,0 0,10 -10,0 0,-10z M70,30l10,0 0,10 -10,0 0,-10z M90,30l10,0 0,10 -10,0 0,-10z M100,30l10,0 0,10 -10,0 0,-10z M110,30l10,0 0,10 -10,0 0,-10z M130,30l10,0 0,10 -10,0 0,-10z M140,30l10,0 0,10 -10,0 0,-10z M150,30l10,0 0,10 -10,0 0,-10z M160,30l10,0 0,10 -10,0 0,-10z M170,30l10,0 0,10 -10,0 0,-10z M190,30l10,0 0,10 -10,0 0,-10z M200,30l10,0 0,10 -10,0 0,-10z M210,30l10,0 0,10 -10,0 0,-10z M240,30l10,0 0,10 -10,0 0,-10z M260,30l10,0 0,10 -10,0 0,-10z M280,30l10,0 0,10 -10,0 0,-10z M290,30l10,0 0,10 -10,0 0,-10z M310,30l10,0 0,10 -10,0 0,-10z M330,30l10,0 0,10 -10,0 0,-10z M340,30l10,0 0,10 -10,0 0,-10z M350,30l10,0 0,10 -10,0 0,-10z M370,30l10,0 0,10 -10,0 0,-10z M10,40l10,0 0,10 -10,0 0,-10z M30,40l10,0 0,10 -10,0 0,-10z M40,40l10,0 0,10 -10,0 0,-10z M50,40l10,0 0,10 -10,0 0,-10z M70,40l10,0 0,10 -10,0 0,-10z M110,40l10,0 0,10 -10,0 0,-10z M120,40l10,0 0,10 -10,0 0,-10z M130,40l10,0 0,10 -10,0 0,-10z M140,40l10,0 0,10 -10,0 0,-10z M210,40l10,0 0,10 -10,0 0,-10z M220,40l10,0 0,10 -10,0 0,-10z M240,40l10,0 0,10 -10,0 0,-10z M250,40l10,0 0,10 -10,0 0,-10z M270,40l10,0 0,10 -10,0 0,-10z M280,40l10,0 0,10 -10,0 0,-10z M310,40l10,0 0,10 -10,0 0,-10z M330,40l10,0 0,10 -10,0 0,-10z M340,40l10,0 0,10 -10,0 0,-10z M350,40l10,0 0,10 -10,0 0,-10z M370,40l10,0 0,10 -10,0 0,-10z M10,50l10,0 0,10 -10,0 0,-10z M30,50l10,0 0,10 -10,0 0,-10z M40,50l10,0 0,10 -10,0 0,-10z M50,50l10,0 0,10 -10,0 0,-10z M70,50l10,0 0,10 -10,0 0,-10z M90,50l10,0 0,10 -10,0 0,-10z M120,50l10,0 0,10 -10,0 0,-10z M140,50l10,0 0,10 -10,0 0,-10z M160,50l10,0 0,10 -10,0 0,-10z M180,50l10,0 0,10 -10,0 0,-10z M190,50l10,0 0,10 -10,0 0,-10z M210,50l10,0 0,10 -10,0 0,-10z M230,50l10,0 0,10 -10,0 0,-10z M280,50l10,0 0,10 -10,0 0,-10z M310,50l10,0 0,10 -10,0 0,-10z M330,50l10,0 0,10 -10,0 0,-10z M340,50l10,0 0,10 -10,0 0,-10z M350,50l10,0 0,10 -10,0 0,-10z M370,50l10,0 0,10 -10,0 0,-10z M10,60l10,0 0,10 -10,0 0,-10z M70,60l10,0 0,10 -10,0 0,-10z M90,60l10,0 0,10 -10,0 0,-10z M100,60l10,0 0,10 -10,0 0,-10z M120,60l10,0 0,10 -10,0 0,-10z M140,60l10,0 0,10 -10,0 0,-10z M160,60l10,0 0,10 -10,0 0,-10z M180,60l10,0 0,10 -10,0 0,-10z M190,60l10,0 0,10 -10,0 0,-10z M200,60l10,0 0,10 -10,0 0,-10z M240,60l10,0 0,10 -10,0 0,-10z M250,60l10,0 0,10 -10,0 0,-10z M280,60l10,0 0,10 -10,0 0,-10z M310,60l10,0 0,10 -10,0 0,-10z M370,60l10,0 0,10 -10,0 0,-10z M10,70l10,0 0,10 -10,0 0,-10z M20,70l10,0 0,10 -10,0 0,-10z M30,70l10,0 0,10 -10,0 0,-10z M40,70l10,0 0,10 -10,0 0,-10z M50,70l10,0 0,10 -10,0 0,-10z M60,70l10,0 0,10 -10,0 0,-10z M70,70l10,0 0,10 -10,0 0,-10z M90,70l10,0 0,10 -10,0 0,-10z M110,70l10,0 0,10 -10,0 0,-10z M130,70l10,0 0,10 -10,0 0,-10z M150,70l10,0 0,10 -10,0 0,-10z M170,70l10,0 0,10 -10,0 0,-10z M190,70l10,0 0,10 -10,0 0,-10z M210,70l10,0 0,10 -10,0 0,-10z M230,70l10,0 0,10 -10,0 0,-10z M250,70l10,0 0,10 -10,0 0,-10z M270,70l10,0 0,10 -10,0 0,-10z M290,70l10,0 0,10 -10,0 0,-10z M310,70l10,0 0,10 -10,0 0,-10z M320,70l10,0 0,10 -10,0 0,-10z M330,70l10,0 0,10 -10,0 0,-10z M340,70l10,0 0,10 -10,0 0,-10z M350,70l10,0 0,10 -10,0 0,-10z M360,70l10,0 0,10 -10,0 0,-10z M370,70l10,0 0,10 -10,0 0,-10z M110,80l10,0 0,10 -10,0 0,-10z M130,80l10,0 0,10 -10,0 0,-10z M140,80l10,0 0,10 -10,0 0,-10z M160,80l10,0 0,10 -10,0 0,-10z M170,80l10,0 0,10 -10,0 0,-10z M180,80l10,0 0,10 -10,0 0,-10z M190,80l10,0 0,10 -10,0 0,-10z M200,80l10,0 0,10 -10,0 0,-10z M240,80l10,0 0,10 -10,0 0,-10z M250,80l10,0 0,10 -10,0 0,-10z M280,80l10,0 0,10 -10,0 0,-10z M290,80l10,0 0,10 -10,0 0,-10z M20,90l10,0 0,10 -10,0 0,-10z M50,90l10,0 0,10 -10,0 0,-10z M70,90l10,0 0,10 -10,0 0,-10z M90,90l10,0 0,10 -10,0 0,-10z M110,90l10,0 0,10 -10,0 0,-10z M130,90l10,0 0,10 -10,0 0,-10z M150,90l10,0 0,10 -10,0 0,-10z M160,90l10,0 0,10 -10,0 0,-10z M170,90l10,0 0,10 -10,0 0,-10z M180,90l10,0 0,10 -10,0 0,-10z M190,90l10,0 0,10 -10,0 0,-10z M210,90l10,0 0,10 -10,0 0,-10z M260,90l10,0 0,10 -10,0 0,-10z M270,90l10,0 0,10 -10,0 0,-10z M300,90l10,0 0,10 -10,0 0,-10z M320,90l10,0 0,10 -10,0 0,-10z M330,90l10,0 0,10 -10,0 0,-10z M350,90l10,0 0,10 -10,0 0,-10z M20,100l10,0 0,10 -10,0 0,-10z M30,100l10,0 0,10 -10,0 0,-10z M50,100l10,0 0,10 -10,0 0,-10z M60,100l10,0 0,10 -10,0 0,-10z M90,100l10,0 0,10 -10,0 0,-10z M100,100l10,0 0,10 -10,0 0,-10z M110,100l10,0 0,10 -10,0 0,-10z M120,100l10,0 0,10 -10,0 0,-10z M130,100l10,0 0,10 -10,0 0,-10z M150,100l10,0 0,10 -10,0 0,-10z M180,100l10,0 0,10 -10,0 0,-10z M210,100l10,0 0,10 -10,0 0,-10z M260,100l10,0 0,10 -10,0 0,-10z M270,100l10,0 0,10 -10,0 0,-10z M280,100l10,0 0,10 -10,0 0,-10z M330,100l10,0 0,10 -10,0 0,-10z M340,100l10,0 0,10 -10,0 0,-10z M360,100l10,0 0,10 -10,0 0,-10z M70,110l10,0 0,10 -10,0 0,-10z M80,110l10,0 0,10 -10,0 0,-10z M90,110l10,0 0,10 -10,0 0,-10z M100,110l10,0 0,10 -10,0 0,-10z M120,110l10,0 0,10 -10,0 0,-10z M150,110l10,0 0,10 -10,0 0,-10z M170,110l10,0 0,10 -10,0 0,-10z M180,110l10,0 0,10 -10,0 0,-10z M190,110l10,0 0,10 -10,0 0,-10z M210,110l10,0 0,10 -10,0 0,-10z M220,110l10,0 0,10 -10,0 0,-10z M230,110l10,0 0,10 -10,0 0,-10z M270,110l10,0 0,10 -10,0 0,-10z M280,110l10,0 0,10 -10,0 0,-10z M310,110l10,0 0,10 -10,0 0,-10z M320,110l10,0 0,10 -10,0 0,-10z M350,110l10,0 0,10 -10,0 0,-10z M360,110l10,0 0,10 -10,0 0,-10z M370,110l10,0 0,10 -10,0 0,-10z M10,120l10,0 0,10 -10,0 0,-10z M20,120l10,0 0,10 -10,0 0,-10z M40,120l10,0 0,10 -10,0 0,-10z M80,120l10,0 0,10 -10,0 0,-10z M100,120l10,0 0,10 -10,0 0,-10z M110,120l10,0 0,10 -10,0 0,-10z M120,120l10,0 0,10 -10,0 0,-10z M140,120l10,0 0,10 -10,0 0,-10z M160,120l10,0 0,10 -10,0 0,-10z M170,120l10,0 0,10 -10,0 0,-10z M180,120l10,0 0,10 -10,0 0,-10z M200,120l10,0 0,10 -10,0 0,-10z M210,120l10,0 0,10 -10,0 0,-10z M230,120l10,0 0,10 -10,0 0,-10z M240,120l10,0 0,10 -10,0 0,-10z M260,120l10,0 0,10 -10,0 0,-10z M280,120l10,0 0,10 -10,0 0,-10z M290,120l10,0 0,10 -10,0 0,-10z M300,120l10,0 0,10 -10,0 0,-10z M310,120l10,0 0,10 -10,0 0,-10z M350,120l10,0 0,10 -10,0 0,-10z M360,120l10,0 0,10 -10,0 0,-10z M20,130l10,0 0,10 -10,0 0,-10z M40,130l10,0 0,10 -10,0 0,-10z M50,130l10,0 0,10 -10,0 0,-10z M60,130l10,0 0,10 -10,0 0,-10z M70,130l10,0 0,10 -10,0 0,-10z M80,130l10,0 0,10 -10,0 0,-10z M120,130l10,0 0,10 -10,0 0,-10z M150,130l10,0 0,10 -10,0 0,-10z M160,130l10,0 0,10 -10,0 0,-10z M170,130l10,0 0,10 -10,0 0,-10z M180,130l10,0 0,10 -10,0 0,-10z M200,130l10,0 0,10 -10,0 0,-10z M210,130l10,0 0,10 -10,0 0,-10z M220,130l10,0 0,10 -10,0 0,-10z M260,130l10,0 0,10 -10,0 0,-10z M290,130l10,0 0,10 -10,0 0,-10z M300,130l10,0 0,10 -10,0 0,-10z M330,130l10,0 0,10 -10,0 0,-10z M340,130l10,0 0,10 -10,0 0,-10z M350,130l10,0 0,10 -10,0 0,-10z M370,130l10,0 0,10 -10,0 0,-10z M10,140l10,0 0,10 -10,0 0,-10z M30,140l10,0 0,10 -10,0 0,-10z M60,140l10,0 0,10 -10,0 0,-10z M80,140l10,0 0,10 -10,0 0,-10z M100,140l10,0 0,10 -10,0 0,-10z M110,140l10,0 0,10 -10,0 0,-10z M200,140l10,0 0,10 -10,0 0,-10z M220,140l10,0 0,10 -10,0 0,-10z M230,140l10,0 0,10 -10,0 0,-10z M240,140l10,0 0,10 -10,0 0,-10z M250,140l10,0 0,10 -10,0 0,-10z M260,140l10,0 0,10 -10,0 0,-10z M280,140l10,0 0,10 -10,0 0,-10z M300,140l10,0 0,10 -10,0 0,-10z M310,140l10,0 0,10 -10,0 0,-10z M360,140l10,0 0,10 -10,0 0,-10z M370,140l10,0 0,10 -10,0 0,-10z M20,150l10,0 0,10 -10,0 0,-10z M40,150l10,0 0,10 -10,0 0,-10z M60,150l10,0 0,10 -10,0 0,-10z M70,150l10,0 0,10 -10,0 0,-10z M110,150l10,0 0,10 -10,0 0,-10z M120,150l10,0 0,10 -10,0 0,-10z M140,150l10,0 0,10 -10,0 0,-10z M160,150l10,0 0,10 -10,0 0,-10z M170,150l10,0 0,10 -10,0 0,-10z M180,150l10,0 0,10 -10,0 0,-10z M190,150l10,0 0,10 -10,0 0,-10z M200,150l10,0 0,10 -10,0 0,-10z M290,150l10,0 0,10 -10,0 0,-10z M300,150l10,0 0,10 -10,0 0,-10z M310,150l10,0 0,10 -10,0 0,-10z M330,150l10,0 0,10 -10,0 0,-10z M340,150l10,0 0,10 -10,0 0,-10z M350,150l10,0 0,10 -10,0 0,-10z M370,150l10,0 0,10 -10,0 0,-10z M10,160l10,0 0,10 -10,0 0,-10z M20,160l10,0 0,10 -10,0 0,-10z M40,160l10,0 0,10 -10,0 0,-10z M60,160l10,0 0,10 -10,0 0,-10z M120,160l10,0 0,10 -10,0 0,-10z M130,160l10,0 0,10 -10,0 0,-10z M140,160l10,0 0,10 -10,0 0,-10z M180,160l10,0 0,10 -10,0 0,-10z M230,160l10,0 0,10 -10,0 0,-10z M240,160l10,0 0,10 -10,0 0,-10z M260,160l10,0 0,10 -10,0 0,-10z M280,160l10,0 0,10 -10,0 0,-10z M290,160l10,0 0,10 -10,0 0,-10z M310,160l10,0 0,10 -10,0 0,-10z M320,160l10,0 0,10 -10,0 0,-10z M330,160l10,0 0,10 -10,0 0,-10z M340,160l10,0 0,10 -10,0 0,-10z M360,160l10,0 0,10 -10,0 0,-10z M20,170l10,0 0,10 -10,0 0,-10z M40,170l10,0 0,10 -10,0 0,-10z M70,170l10,0 0,10 -10,0 0,-10z M90,170l10,0 0,10 -10,0 0,-10z M120,170l10,0 0,10 -10,0 0,-10z M130,170l10,0 0,10 -10,0 0,-10z M140,170l10,0 0,10 -10,0 0,-10z M150,170l10,0 0,10 -10,0 0,-10z M160,170l10,0 0,10 -10,0 0,-10z M170,170l10,0 0,10 -10,0 0,-10z M190,170l10,0 0,10 -10,0 0,-10z M200,170l10,0 0,10 -10,0 0,-10z M230,170l10,0 0,10 -10,0 0,-10z M250,170l10,0 0,10 -10,0 0,-10z M260,170l10,0 0,10 -10,0 0,-10z M270,170l10,0 0,10 -10,0 0,-10z M300,170l10,0 0,10 -10,0 0,-10z M350,170l10,0 0,10 -10,0 0,-10z M370,170l10,0 0,10 -10,0 0,-10z M20,180l10,0 0,10 -10,0 0,-10z M30,180l10,0 0,10 -10,0 0,-10z M40,180l10,0 0,10 -10,0 0,-10z M60,180l10,0 0,10 -10,0 0,-10z M80,180l10,0 0,10 -10,0 0,-10z M120,180l10,0 0,10 -10,0 0,-10z M140,180l10,0 0,10 -10,0 0,-10z M180,180l10,0 0,10 -10,0 0,-10z M190,180l10,0 0,10 -10,0 0,-10z M200,180l10,0 0,10 -10,0 0,-10z M210,180l10,0 0,10 -10,0 0,-10z M260,180l10,0 0,10 -10,0 0,-10z M280,180l10,0 0,10 -10,0 0,-10z M300,180l10,0 0,10 -10,0 0,-10z M310,180l10,0 0,10 -10,0 0,-10z M320,180l10,0 0,10 -10,0 0,-10z M360,180l10,0 0,10 -10,0 0,-10z M370,180l10,0 0,10 -10,0 0,-10z M70,190l10,0 0,10 -10,0 0,-10z M90,190l10,0 0,10 -10,0 0,-10z M100,190l10,0 0,10 -10,0 0,-10z M110,190l10,0 0,10 -10,0 0,-10z M140,190l10,0 0,10 -10,0 0,-10z M160,190l10,0 0,10 -10,0 0,-10z M170,190l10,0 0,10 -10,0 0,-10z M180,190l10,0 0,10 -10,0 0,-10z M220,190l10,0 0,10 -10,0 0,-10z M230,190l10,0 0,10 -10,0 0,-10z M280,190l10,0 0,10 -10,0 0,-10z M300,190l10,0 0,10 -10,0 0,-10z M340,190l10,0 0,10 -10,0 0,-10z M350,190l10,0 0,10 -10,0 0,-10z M370,190l10,0 0,10 -10,0 0,-10z M20,200l10,0 0,10 -10,0 0,-10z M80,200l10,0 0,10 -10,0 0,-10z M90,200l10,0 0,10 -10,0 0,-10z M120,200l10,0 0,10 -10,0 0,-10z M130,200l10,0 0,10 -10,0 0,-10z M150,200l10,0 0,10 -10,0 0,-10z M160,200l10,0 0,10 -10,0 0,-10z M230,200l10,0 0,10 -10,0 0,-10z M250,200l10,0 0,10 -10,0 0,-10z M260,200l10,0 0,10 -10,0 0,-10z M300,200l10,0 0,10 -10,0 0,-10z M340,200l10,0 0,10 -10,0 0,-10z M10,210l10,0 0,10 -10,0 0,-10z M20,210l10,0 0,10 -10,0 0,-10z M30,210l10,0 0,10 -10,0 0,-10z M40,210l10,0 0,10 -10,0 0,-10z M50,210l10,0 0,10 -10,0 0,-10z M60,210l10,0 0,10 -10,0 0,-10z M70,210l10,0 0,10 -10,0 0,-10z M90,210l10,0 0,10 -10,0 0,-10z M110,210l10,0 0,10 -10,0 0,-10z M130,210l10,0 0,10 -10,0 0,-10z M140,210l10,0 0,10 -10,0 0,-10z M150,210l10,0 0,10 -10,0 0,-10z M170,210l10,0 0,10 -10,0 0,-10z M180,210l10,0 0,10 -10,0 0,-10z M210,210l10,0 0,10 -10,0 0,-10z M220,210l10,0 0,10 -10,0 0,-10z M240,210l10,0 0,10 -10,0 0,-10z M270,210l10,0 0,10 -10,0 0,-10z M280,210l10,0 0,10 -10,0 0,-10z M290,210l10,0 0,10 -10,0 0,-10z M340,210l10,0 0,10 -10,0 0,-10z M350,210l10,0 0,10 -10,0 0,-10z M360,210l10,0 0,10 -10,0 0,-10z M370,210l10,0 0,10 -10,0 0,-10z M40,220l10,0 0,10 -10,0 0,-10z M80,220l10,0 0,10 -10,0 0,-10z M90,220l10,0 0,10 -10,0 0,-10z M100,220l10,0 0,10 -10,0 0,-10z M120,220l10,0 0,10 -10,0 0,-10z M130,220l10,0 0,10 -10,0 0,-10z M140,220l10,0 0,10 -10,0 0,-10z M150,220l10,0 0,10 -10,0 0,-10z M170,220l10,0 0,10 -10,0 0,-10z M180,220l10,0 0,10 -10,0 0,-10z M190,220l10,0 0,10 -10,0 0,-10z M200,220l10,0 0,10 -10,0 0,-10z M210,220l10,0 0,10 -10,0 0,-10z M230,220l10,0 0,10 -10,0 0,-10z M240,220l10,0 0,10 -10,0 0,-10z M250,220l10,0 0,10 -10,0 0,-10z M290,220l10,0 0,10 -10,0 0,-10z M300,220l10,0 0,10 -10,0 0,-10z M320,220l10,0 0,10 -10,0 0,-10z M350,220l10,0 0,10 -10,0 0,-10z M20,230l10,0 0,10 -10,0 0,-10z M50,230l10,0 0,10 -10,0 0,-10z M60,230l10,0 0,10 -10,0 0,-10z M70,230l10,0 0,10 -10,0 0,-10z M80,230l10,0 0,10 -10,0 0,-10z M100,230l10,0 0,10 -10,0 0,-10z M120,230l10,0 0,10 -10,0 0,-10z M130,230l10,0 0,10 -10,0 0,-10z M160,230l10,0 0,10 -10,0 0,-10z M170,230l10,0 0,10 -10,0 0,-10z M180,230l10,0 0,10 -10,0 0,-10z M190,230l10,0 0,10 -10,0 0,-10z M200,230l10,0 0,10 -10,0 0,-10z M210,230l10,0 0,10 -10,0 0,-10z M220,230l10,0 0,10 -10,0 0,-10z M230,230l10,0 0,10 -10,0 0,-10z M260,230l10,0 0,10 -10,0 0,-10z M270,230l10,0 0,10 -10,0 0,-10z M340,230l10,0 0,10 -10,0 0,-10z M20,240l10,0 0,10 -10,0 0,-10z M50,240l10,0 0,10 -10,0 0,-10z M100,240l10,0 0,10 -10,0 0,-10z M110,240l10,0 0,10 -10,0 0,-10z M120,240l10,0 0,10 -10,0 0,-10z M130,240l10,0 0,10 -10,0 0,-10z M140,240l10,0 0,10 -10,0 0,-10z M150,240l10,0 0,10 -10,0 0,-10z M160,240l10,0 0,10 -10,0 0,-10z M180,240l10,0 0,10 -10,0 0,-10z M190,240l10,0 0,10 -10,0 0,-10z M210,240l10,0 0,10 -10,0 0,-10z M220,240l10,0 0,10 -10,0 0,-10z M240,240l10,0 0,10 -10,0 0,-10z M260,240l10,0 0,10 -10,0 0,-10z M310,240l10,0 0,10 -10,0 0,-10z M360,240l10,0 0,10 -10,0 0,-10z M370,240l10,0 0,10 -10,0 0,-10z M10,250l10,0 0,10 -10,0 0,-10z M30,250l10,0 0,10 -10,0 0,-10z M50,250l10,0 0,10 -10,0 0,-10z M60,250l10,0 0,10 -10,0 0,-10z M70,250l10,0 0,10 -10,0 0,-10z M80,250l10,0 0,10 -10,0 0,-10z M100,250l10,0 0,10 -10,0 0,-10z M110,250l10,0 0,10 -10,0 0,-10z M130,250l10,0 0,10 -10,0 0,-10z M160,250l10,0 0,10 -10,0 0,-10z M200,250l10,0 0,10 -10,0 0,-10z M210,250l10,0 0,10 -10,0 0,-10z M220,250l10,0 0,10 -10,0 0,-10z M260,250l10,0 0,10 -10,0 0,-10z M290,250l10,0 0,10 -10,0 0,-10z M300,250l10,0 0,10 -10,0 0,-10z M310,250l10,0 0,10 -10,0 0,-10z M320,250l10,0 0,10 -10,0 0,-10z M340,250l10,0 0,10 -10,0 0,-10z M360,250l10,0 0,10 -10,0 0,-10z M10,260l10,0 0,10 -10,0 0,-10z M20,260l10,0 0,10 -10,0 0,-10z M30,260l10,0 0,10 -10,0 0,-10z M40,260l10,0 0,10 -10,0 0,-10z M130,260l10,0 0,10 -10,0 0,-10z M150,260l10,0 0,10 -10,0 0,-10z M160,260l10,0 0,10 -10,0 0,-10z M170,260l10,0 0,10 -10,0 0,-10z M240,260l10,0 0,10 -10,0 0,-10z M250,260l10,0 0,10 -10,0 0,-10z M260,260l10,0 0,10 -10,0 0,-10z M270,260l10,0 0,10 -10,0 0,-10z M280,260l10,0 0,10 -10,0 0,-10z M330,260l10,0 0,10 -10,0 0,-10z M340,260l10,0 0,10 -10,0 0,-10z M360,260l10,0 0,10 -10,0 0,-10z M370,260l10,0 0,10 -10,0 0,-10z M40,270l10,0 0,10 -10,0 0,-10z M70,270l10,0 0,10 -10,0 0,-10z M80,270l10,0 0,10 -10,0 0,-10z M100,270l10,0 0,10 -10,0 0,-10z M130,270l10,0 0,10 -10,0 0,-10z M180,270l10,0 0,10 -10,0 0,-10z M190,270l10,0 0,10 -10,0 0,-10z M200,270l10,0 0,10 -10,0 0,-10z M210,270l10,0 0,10 -10,0 0,-10z M220,270l10,0 0,10 -10,0 0,-10z M230,270l10,0 0,10 -10,0 0,-10z M280,270l10,0 0,10 -10,0 0,-10z M300,270l10,0 0,10 -10,0 0,-10z M370,270l10,0 0,10 -10,0 0,-10z M40,280l10,0 0,10 -10,0 0,-10z M80,280l10,0 0,10 -10,0 0,-10z M90,280l10,0 0,10 -10,0 0,-10z M110,280l10,0 0,10 -10,0 0,-10z M120,280l10,0 0,10 -10,0 0,-10z M140,280l10,0 0,10 -10,0 0,-10z M160,280l10,0 0,10 -10,0 0,-10z M180,280l10,0 0,10 -10,0 0,-10z M220,280l10,0 0,10 -10,0 0,-10z M230,280l10,0 0,10 -10,0 0,-10z M240,280l10,0 0,10 -10,0 0,-10z M260,280l10,0 0,10 -10,0 0,-10z M280,280l10,0 0,10 -10,0 0,-10z M300,280l10,0 0,10 -10,0 0,-10z M350,280l10,0 0,10 -10,0 0,-10z M360,280l10,0 0,10 -10,0 0,-10z M10,290l10,0 0,10 -10,0 0,-10z M20,290l10,0 0,10 -10,0 0,-10z M30,290l10,0 0,10 -10,0 0,-10z M40,290l10,0 0,10 -10,0 0,-10z M50,290l10,0 0,10 -10,0 0,-10z M60,290l10,0 0,10 -10,0 0,-10z M70,290l10,0 0,10 -10,0 0,-10z M80,290l10,0 0,10 -10,0 0,-10z M100,290l10,0 0,10 -10,0 0,-10z M120,290l10,0 0,10 -10,0 0,-10z M130,290l10,0 0,10 -10,0 0,-10z M140,290l10,0 0,10 -10,0 0,-10z M170,290l10,0 0,10 -10,0 0,-10z M180,290l10,0 0,10 -10,0 0,-10z M190,290l10,0 0,10 -10,0 0,-10z M210,290l10,0 0,10 -10,0 0,-10z M220,290l10,0 0,10 -10,0 0,-10z M270,290l10,0 0,10 -10,0 0,-10z M290,290l10,0 0,10 -10,0 0,-10z M300,290l10,0 0,10 -10,0 0,-10z M310,290l10,0 0,10 -10,0 0,-10z M320,290l10,0 0,10 -10,0 0,-10z M330,290l10,0 0,10 -10,0 0,-10z M340,290l10,0 0,10 -10,0 0,-10z M370,290l10,0 0,10 -10,0 0,-10z M90,300l10,0 0,10 -10,0 0,-10z M120,300l10,0 0,10 -10,0 0,-10z M130,300l10,0 0,10 -10,0 0,-10z M150,300l10,0 0,10 -10,0 0,-10z M160,300l10,0 0,10 -10,0 0,-10z M180,300l10,0 0,10 -10,0 0,-10z M190,300l10,0 0,10 -10,0 0,-10z M260,300l10,0 0,10 -10,0 0,-10z M280,300l10,0 0,10 -10,0 0,-10z M290,300l10,0 0,10 -10,0 0,-10z M330,300l10,0 0,10 -10,0 0,-10z M10,310l10,0 0,10 -10,0 0,-10z M20,310l10,0 0,10 -10,0 0,-10z M30,310l10,0 0,10 -10,0 0,-10z M40,310l10,0 0,10 -10,0 0,-10z M50,310l10,0 0,10 -10,0 0,-10z M60,310l10,0 0,10 -10,0 0,-10z M70,310l10,0 0,10 -10,0 0,-10z M100,310l10,0 0,10 -10,0 0,-10z M130,310l10,0 0,10 -10,0 0,-10z M160,310l10,0 0,10 -10,0 0,-10z M170,310l10,0 0,10 -10,0 0,-10z M180,310l10,0 0,10 -10,0 0,-10z M190,310l10,0 0,10 -10,0 0,-10z M200,310l10,0 0,10 -10,0 0,-10z M210,310l10,0 0,10 -10,0 0,-10z M220,310l10,0 0,10 -10,0 0,-10z M230,310l10,0 0,10 -10,0 0,-10z M260,310l10,0 0,10 -10,0 0,-10z M280,310l10,0 0,10 -10,0 0,-10z M290,310l10,0 0,10 -10,0 0,-10z M310,310l10,0 0,10 -10,0 0,-10z M330,310l10,0 0,10 -10,0 0,-10z M350,310l10,0 0,10 -10,0 0,-10z M360,310l10,0 0,10 -10,0 0,-10z M10,320l10,0 0,10 -10,0 0,-10z M70,320l10,0 0,10 -10,0 0,-10z M130,320l10,0 0,10 -10,0 0,-10z M140,320l10,0 0,10 -10,0 0,-10z M170,320l10,0 0,10 -10,0 0,-10z M200,320l10,0 0,10 -10,0 0,-10z M210,320l10,0 0,10 -10,0 0,-10z M220,320l10,0 0,10 -10,0 0,-10z M240,320l10,0 0,10 -10,0 0,-10z M260,320l10,0 0,10 -10,0 0,-10z M290,320l10,0 0,10 -10,0 0,-10z M330,320l10,0 0,10 -10,0 0,-10z M360,320l10,0 0,10 -10,0 0,-10z M10,330l10,0 0,10 -10,0 0,-10z M30,330l10,0 0,10 -10,0 0,-10z M40,330l10,0 0,10 -10,0 0,-10z M50,330l10,0 0,10 -10,0 0,-10z M70,330l10,0 0,10 -10,0 0,-10z M90,330l10,0 0,10 -10,0 0,-10z M120,330l10,0 0,10 -10,0 0,-10z M150,330l10,0 0,10 -10,0 0,-10z M160,330l10,0 0,10 -10,0 0,-10z M170,330l10,0 0,10 -10,0 0,-10z M190,330l10,0 0,10 -10,0 0,-10z M200,330l10,0 0,10 -10,0 0,-10z M210,330l10,0 0,10 -10,0 0,-10z M260,330l10,0 0,10 -10,0 0,-10z M280,330l10,0 0,10 -10,0 0,-10z M290,330l10,0 0,10 -10,0 0,-10z M300,330l10,0 0,10 -10,0 0,-10z M310,330l10,0 0,10 -10,0 0,-10z M320,330l10,0 0,10 -10,0 0,-10z M330,330l10,0 0,10 -10,0 0,-10z M340,330l10,0 0,10 -10,0 0,-10z M370,330l10,0 0,10 -10,0 0,-10z M10,340l10,0 0,10 -10,0 0,-10z M30,340l10,0 0,10 -10,0 0,-10z M40,340l10,0 0,10 -10,0 0,-10z M50,340l10,0 0,10 -10,0 0,-10z M70,340l10,0 0,10 -10,0 0,-10z M100,340l10,0 0,10 -10,0 0,-10z M120,340l10,0 0,10 -10,0 0,-10z M130,340l10,0 0,10 -10,0 0,-10z M140,340l10,0 0,10 -10,0 0,-10z M180,340l10,0 0,10 -10,0 0,-10z M200,340l10,0 0,10 -10,0 0,-10z M230,340l10,0 0,10 -10,0 0,-10z M250,340l10,0 0,10 -10,0 0,-10z M340,340l10,0 0,10 -10,0 0,-10z M360,340l10,0 0,10 -10,0 0,-10z M10,350l10,0 0,10 -10,0 0,-10z M30,350l10,0 0,10 -10,0 0,-10z M40,350l10,0 0,10 -10,0 0,-10z M50,350l10,0 0,10 -10,0 0,-10z M70,350l10,0 0,10 -10,0 0,-10z M110,350l10,0 0,10 -10,0 0,-10z M130,350l10,0 0,10 -10,0 0,-10z M150,350l10,0 0,10 -10,0 0,-10z M170,350l10,0 0,10 -10,0 0,-10z M190,350l10,0 0,10 -10,0 0,-10z M200,350l10,0 0,10 -10,0 0,-10z M220,350l10,0 0,10 -10,0 0,-10z M230,350l10,0 0,10 -10,0 0,-10z M240,350l10,0 0,10 -10,0 0,-10z M250,350l10,0 0,10 -10,0 0,-10z M270,350l10,0 0,10 -10,0 0,-10z M310,350l10,0 0,10 -10,0 0,-10z M330,350l10,0 0,10 -10,0 0,-10z M340,350l10,0 0,10 -10,0 0,-10z M350,350l10,0 0,10 -10,0 0,-10z M360,350l10,0 0,10 -10,0 0,-10z M10,360l10,0 0,10 -10,0 0,-10z M70,360l10,0 0,10 -10,0 0,-10z M90,360l10,0 0,10 -10,0 0,-10z M100,360l10,0 0,10 -10,0 0,-10z M110,360l10,0 0,10 -10,0 0,-10z M140,360l10,0 0,10 -10,0 0,-10z M190,360l10,0 0,10 -10,0 0,-10z M200,360l10,0 0,10 -10,0 0,-10z M210,360l10,0 0,10 -10,0 0,-10z M220,360l10,0 0,10 -10,0 0,-10z M230,360l10,0 0,10 -10,0 0,-10z M240,360l10,0 0,10 -10,0 0,-10z M260,360l10,0 0,10 -10,0 0,-10z M270,360l10,0 0,10 -10,0 0,-10z M280,360l10,0 0,10 -10,0 0,-10z M290,360l10,0 0,10 -10,0 0,-10z M300,360l10,0 0,10 -10,0 0,-10z M360,360l10,0 0,10 -10,0 0,-10z M10,370l10,0 0,10 -10,0 0,-10z M20,370l10,0 0,10 -10,0 0,-10z M30,370l10,0 0,10 -10,0 0,-10z M40,370l10,0 0,10 -10,0 0,-10z M50,370l10,0 0,10 -10,0 0,-10z M60,370l10,0 0,10 -10,0 0,-10z M70,370l10,0 0,10 -10,0 0,-10z M110,370l10,0 0,10 -10,0 0,-10z M120,370l10,0 0,10 -10,0 0,-10z M140,370l10,0 0,10 -10,0 0,-10z M150,370l10,0 0,10 -10,0 0,-10z M160,370l10,0 0,10 -10,0 0,-10z M190,370l10,0 0,10 -10,0 0,-10z M210,370l10,0 0,10 -10,0 0,-10z M230,370l10,0 0,10 -10,0 0,-10z M260,370l10,0 0,10 -10,0 0,-10z M290,370l10,0 0,10 -10,0 0,-10z M300,370l10,0 0,10 -10,0 0,-10z M310,370l10,0 0,10 -10,0 0,-10z M320,370l10,0 0,10 -10,0 0,-10z M330,370l10,0 0,10 -10,0 0,-10z M340,370l10,0 0,10 -10,0 0,-10z M360,370l10,0 0,10 -10,0 0,-10z M370,370l10,0 0,10 -10,0 0,-10z " stroke="transparent" fill="rgb(0, 0, 0)"/></svg>