<?xml version="1.0" encoding="utf-8"?>
<!-- Generator: Adobe Illustrator 16.0.0, SVG Export Plug-In . SVG Version: 6.00 Build 0)  -->
<!DOCTYPE svg PUBLIC "-//W3C//DTD SVG 1.1//EN" "http://www.w3.org/Graphics/SVG/1.1/DTD/svg11.dtd">
<svg version="1.1" id="Layer_1" xmlns="http://www.w3.org/2000/svg" xmlns:xlink="http://www.w3.org/1999/xlink" x="0px" y="0px"
	 width="335.591px" height="444px" viewBox="192.613 218.5 335.591 444" enable-background="new 192.613 218.5 335.591 444"
	 xml:space="preserve">
<path opacity="0.45" fill="#E6E6E6" enable-background="new    " d="M194.993,633.863c0,12.729,142.401,23.33,330.831,25.638
	v-51.275C337.395,610.531,194.993,621.133,194.993,633.863z"/>
<path fill="#2EC6FF" d="M327.463,335.388c-3.216,12.492,4.305,25.227,16.797,28.441c0.218,0.057,0.438,0.109,0.657,0.159
	c27.005,6.056,68.4,19.962,97.888,7.601c38.178-16.188,14.288-104.02,14.288-104.02l-16.594,1.927c0,0,31.92,112.758-77.115,47.55
	c-13.883-8.311-31.895,2.762-35.922,18.442L327.463,335.388L327.463,335.388z"/>
<path opacity="0.46" fill="#FFFFFF" enable-background="new    " d="M327.463,335.388c-3.216,12.492,4.305,25.227,16.797,28.441
	c0.218,0.057,0.438,0.109,0.657,0.159c27.005,6.056,68.4,19.962,97.888,7.601c38.178-16.188,14.288-104.02,14.288-104.02
	l-16.594,1.927c0,0,31.92,112.758-77.115,47.55c-13.883-8.311-31.895,2.762-35.922,18.442L327.463,335.388L327.463,335.388z"/>
<path fill="#2EC6FF" d="M295.669,632.269c0,0,1.368,7.094,7.347,8.538c5.979,1.443,6.637,7.6,0.962,8.334
	c-5.674,0.734-18.645-8.486-18.645-8.486l2.229-11.021L295.669,632.269z"/>
<path fill="#2EC6FF" d="M463.427,528.757c0,0,4.459,5.675,10.438,4.256c5.979-1.419,9.397,3.749,4.636,6.967
	s-20.47,0.963-20.47,0.963l-3.04-10.843L463.427,528.757z"/>
<rect x="371.669" y="541.701" fill="#FFD200" width="156.535" height="98.243"/>
<path fill="#F4A28C" d="M317.608,263.593c1.399,6.753,1.885,13.663,1.444,20.546c-0.472,3.407-3.605,5.796-7.017,5.345
	c-5.395-0.407-10.052-3.936-11.907-9.019l-5.066-10.312c-1.591-4.446-0.2-9.415,3.471-12.388
	C304.992,251.965,316.468,256.12,317.608,263.593z"/>
<polygon fill="#F4A28C" points="296.075,272.03 294.453,312.614 316.898,311.904 309.045,282.669 "/>
<path fill="#24285B" d="M314.619,264.454c-3.784,0.614-7.628,0.775-11.451,0.48c2.649,3.156,3.177,7.583,1.343,11.273
	c-1.729,3.64-5.805,5.533-9.703,4.51l-1.672-15.834c-0.628-4.605,1.316-9.186,5.067-11.932c1.616-1.177,3.309-2.242,5.067-3.192
	c4.332-2.355,11.375,0,15.2-3.673c1.145-1.19,3.037-1.229,4.227-0.084c0.417,0.399,0.708,0.914,0.84,1.478
	c1.292,4.712,1.317,12.389-4.864,15.782C317.411,263.92,316.034,264.324,314.619,264.454z"/>
<path fill="#F4A28C" d="M305.777,275.677c0,0-0.633-4.737-4.155-3.927c-3.521,0.812-2.533,7.601,2.306,7.601L305.777,275.677z"/>
<path fill="#F4A28C" d="M318.824,271.32l3.977,4.332c0.748,0.796,0.708,2.046-0.086,2.794c-0.221,0.207-0.485,0.36-0.775,0.449
	l-4.611,1.444L318.824,271.32z"/>
<path opacity="0.31" fill="#CE8172" enable-background="new    " d="M311.047,288.978c-2.859-0.359-5.548-1.56-7.727-3.446
	c0,0,1.191,7.348,10.133,13.682L311.047,288.978z"/>
<path fill="#2EC6FF" d="M294.453,312.614l15.2-0.48c3.714-0.106,7.419-0.429,11.096-0.963c11.805-1.8,47.145-3.952,66.373,29.487
	c23.281,40.533-15.529,121.601-15.529,121.601h-68.4C303.193,462.257,186.255,329.332,294.453,312.614z"/>
<path opacity="0.08" enable-background="new    " d="M319.331,346.028c0,0,9.424,9.729-1.798,23.13
	c-13.807,16.518-18.671,39.089-10.412,58.977c6.103,15.135,17.783,27.35,32.629,34.124h-36.43c0,0-34.048-38.685-47.956-75.62
	C241.456,349.7,319.331,346.028,319.331,346.028z"/>
<path fill="#2EC6FF" d="M315.354,329.84c-9.278-12.172-25.394-16.895-39.773-11.653c-26.372,9.373-71.542,31.717-76.405,76
	c-6.891,62.928,93.733,76.709,93.733,76.709l3.268-16.011c0,0-104.247-58.268-3.242-87.553
	C292.934,367.332,333.188,353.956,315.354,329.84z"/>
<path opacity="0.46" fill="#FFFFFF" enable-background="new    " d="M315.354,329.84c-9.278-12.172-25.394-16.895-39.773-11.653
	c-26.372,9.373-71.542,31.717-76.405,76c-6.891,62.928,93.733,76.709,93.733,76.709l3.268-16.011c0,0-104.247-58.268-3.242-87.553
	C292.934,367.332,333.188,353.956,315.354,329.84z"/>
<path fill="#24285B" d="M303.32,462.257l-21.356,167.707l17.733,3.04l27.867-107.39c4.227-15.833,17.797-27.407,34.099-29.082
	l36.708-6.004c14.696-2.374,29.34,4.53,36.86,17.378l14.692,25.334l20.064-5.066l-21.002-40.686
	c-8.979-17.356-27.303-27.837-46.815-26.776l-30.4,1.696L303.32,462.257z"/>
<path fill="#F4A28C" d="M296.227,457.191c0,0,17.227,0.329,14.212,11.096c-3.015,10.768-17.606,2.533-17.606,2.533L296.227,457.191z
	"/>
<path fill="#F4A28C" d="M443.616,269.04c0,0-7.602-17.404-3.825-23.788c3.773-6.384,7.347,11.906,7.347,11.906
	s13.907-5.066,9.956,10.311L443.616,269.04z"/>
<text transform="matrix(1 0 0 1 435.7866 607.9241)" fill="#24285B" font-family="'Arial-BoldMT'" font-size="51.1987">1</text>
</svg>
