<?xml version="1.0" encoding="utf-8"?>
<!-- Generator: Adobe Illustrator 16.0.0, SVG Export Plug-In . SVG Version: 6.00 Build 0)  -->
<!DOCTYPE svg PUBLIC "-//W3C//DTD SVG 1.1//EN" "http://www.w3.org/Graphics/SVG/1.1/DTD/svg11.dtd">
<svg version="1.1" id="Layer_1" xmlns="http://www.w3.org/2000/svg" xmlns:xlink="http://www.w3.org/1999/xlink" x="0px" y="0px"
	 width="492.049px" height="576.057px" viewBox="330.289 127.295 492.049 576.057"
	 enable-background="new 330.289 127.295 492.049 576.057" xml:space="preserve">
<path fill="#2EC6FF" d="M567.698,232.56c-9.324,11.188-7.814,27.817,3.374,37.144c0.216,0.18,0.434,0.354,0.653,0.527
	c24.649,19.253,60.318,53.504,96.444,54.998c46.841,1.9,64.903-99.458,64.903-99.458l-17.937-6.028
	c0,0-21.861,130.72-101.813,11.323c-10.134-15.199-33.947-12.667-45.602,1.494H567.698z"/>
<path opacity="0.46" fill="#FFFFFF" enable-background="new    " d="M567.698,232.56c-9.324,11.188-7.814,27.817,3.374,37.144
	c0.216,0.18,0.434,0.354,0.653,0.527c24.649,19.253,60.318,53.504,96.444,54.998c46.841,1.9,64.903-99.458,64.903-99.458
	l-17.937-6.028c0,0-21.861,130.72-101.813,11.323c-10.134-15.199-33.947-12.667-45.602,1.494H567.698z"/>
<path fill="#2EC6FF" d="M647.6,470.616c0,0,5.903,4.154,11.224,1.063c5.319-3.091,10.134,0.887,6.46,5.346
	c-3.673,4.458-19.329,6.814-19.329,6.814l-5.953-9.5L647.6,470.616z"/>
<path fill="#2EC6FF" d="M460.716,519.739c0,0-3.444,6.333,0.254,11.248c3.698,4.914,0.278,10.133-4.561,7.043
	c-4.839-3.091-9.02-18.418-9.02-18.418l8.716-7.093L460.716,519.739z"/>
<rect x="371.669" y="541.701" fill="#E6E6E6" width="156.535" height="98.243"/>
<rect x="585.104" y="483.409" fill="#FFD200" width="156.534" height="156.535"/>
<path fill="#F4A28C" d="M597.161,166.238c-1.665,6.703-4.221,13.153-7.601,19.178c-1.872,2.888-5.731,3.71-8.619,1.837
	c-0.006-0.005-0.014-0.009-0.02-0.014c-4.66-2.694-7.313-7.865-6.789-13.224v-11.451c0.46-4.699,3.847-8.593,8.437-9.702
	C590.701,150.328,599.289,158.992,597.161,166.238z"/>
<polygon fill="#F4A28C" points="574.058,164.641 555.26,200.64 575.855,209.582 581.252,179.79 "/>
<path fill="#24285B" d="M594.07,165.731c-3.679-1.061-7.217-2.558-10.538-4.459c1.042,3.99-0.38,8.22-3.623,10.768
	c-3.108,2.547-7.582,2.547-10.69,0l5.244-14.973c1.391-4.432,5.094-7.746,9.651-8.639c1.939-0.384,3.903-0.638,5.878-0.76
	c4.914-0.279,10.311,4.736,15.2,3.116c1.567-0.518,3.258,0.337,3.772,1.904c0.155,0.473,0.19,0.976,0.104,1.464
	c-0.861,4.813-4.13,11.779-11.172,12.187C596.595,166.366,595.299,166.16,594.07,165.731z"/>
<path fill="#F4A28C" d="M581.303,172.089c0,0,1.419-4.534-2.103-5.345c-3.521-0.813-5.624,5.774-1.19,7.953L581.303,172.089z"/>
<path fill="#F4A28C" d="M594.932,173.736l1.748,5.624c0.303,1.063-0.315,2.17-1.381,2.472c-0.251,0.07-0.513,0.093-0.771,0.063
	l-4.788-0.685L594.932,173.736z"/>
<path opacity="0.31" fill="#CE8172" enable-background="new    " d="M580.365,186.377c-2.439-1.581-4.36-3.847-5.522-6.511
	c0,0-2.052,7.145,3.345,16.694L580.365,186.377z"/>
<path fill="#2EC6FF" d="M555.26,200.64l14.01,6.08c3.403,1.509,6.897,2.804,10.464,3.876c11.398,3.445,44.308,16.594,47.373,55.05
	c3.724,46.587-66.02,103.283-66.02,103.283l-73.239-24.396C487.848,344.532,450.253,169.734,555.26,200.64z"/>
<path fill="#F4A28C" d="M718.533,220.881c0,0,0.532-21.533,7.601-26.169c7.067-4.636,1.747,15.706,1.747,15.706
	s16.695,1.521,5.219,15.353L718.533,220.881z"/>
<text transform="matrix(1 0 0 1 647.6758 573.6975)" fill="#24285B" font-family="'Arial-BoldMT'" font-size="51.1987">2</text>
<path fill="#F4A28C" d="M726.134,212.8c0,0,7.903-17.733,12.21-14.997c4.308,2.735-6.891,18.848-6.891,18.848L726.134,212.8z"/>
<path fill="#24285B" d="M487.848,344.532c0,0-14.338,46.563,21.002,56.063c35.341,9.5,99.257-13.047,129.199,74.91l13.857-6.611
	c0,0-1.899-78.104-82.029-107.794L487.848,344.532z"/>
<path fill="#24285B" d="M497.854,366.32c0,0,40.204,77.115-45.902,139.131l8.765,14.288c0,0,89.479-31.793,90.847-142.348
	L497.854,366.32z"/>
<path opacity="0.08" enable-background="new    " d="M551.563,242.187c0,0-1.317,18.771-26.321,40.761
	c-25.004,21.99,2.964,69.77,2.964,69.77l-40.356-8.184c0,0-10.842-57.151-4.509-93.101c6.333-35.947,66.171-9.297,66.171-9.297
	L551.563,242.187z"/>
<path fill="#2EC6FF" d="M514.676,195.599c-45.22-1.292-141.309,10.665-112.328,140.574h20.064c0,0,2.533-95.607,85.069-84.613
	c3.079,0.447,6.186,0.692,9.297,0.734c13.934,0,47.551-2.533,36.101-30.806C546.403,206.049,531.417,195.893,514.676,195.599z"/>
<path opacity="0.46" fill="#FFFFFF" enable-background="new    " d="M514.676,195.599c-45.22-1.292-141.309,10.665-112.328,140.574
	h20.064c0,0,2.533-95.607,85.069-84.613c3.079,0.447,6.186,0.692,9.297,0.734c13.934,0,47.551-2.533,36.101-30.806
	C546.403,206.049,531.417,195.893,514.676,195.599z"/>
<path fill="#F4A28C" d="M418.84,336.173c1.258,6.493,0.697,13.21-1.621,19.404c-3.876,8.74-10.666,10.361-16.163,6.789
	c-5.498-3.57,7.119-17.732,7.119-17.732l-2.914-8.41L418.84,336.173z"/>
<path opacity="0.45" fill="#E6E6E6" enable-background="new    " d="M650.336,617.399c-120.485,0-229.61,3.111-308.836,8.146v39.795
	c79.226,5.034,188.351,8.146,308.836,8.146c47.536,0,93.303-0.483,136.164-1.38v-53.328
	C743.639,617.883,697.872,617.399,650.336,617.399z"/>
</svg>
